# xmcd CD database file
#
# Track frame offsets:
#	150
#	19889
#	50292
#	87286
#	123125
#	145801
#	168382
#	190142
#	218150
#	252433
#	301013
#
# Disc length: 4395 seconds
#
# Revision: 0
# Processed by: cddbd v1.5.2PL0 Copyright (c) Steve Scherf et al.
# Submitted via: CDex 1.51
#
DISCID=8d11290b
DTITLE=Jack McDuff - The Honey Dripper - Goodnight, It's Time To Go
DYEAR=1961
DGENRE=Jazz
TTITLE0=Whap!
TTITLE1=I Want A Little Girl
TTITLE2=The Honeydripper
TTITLE3=Dink's Blues
TTITLE4=Mr. Lucky
TTITLE5=Blues And Tonic
TTITLE6=Sanctified Waltz
TTITLE7=Goodnight, It's Time To Go
TTITLE8=I'll Be Seeing You
TTITLE9=A Smooth One
TTITLE10=McDuff Speaking
EXTD=YEAR: 1961
EXTT0=
EXTT1=
EXTT2=
EXTT3=
EXTT4=
EXTT5=
EXTT6=
EXTT7=
EXTT8=
EXTT9=
EXTT10=
PLAYORDER=
